<?xml version="1.0" encoding="utf-8"?>
<svg xmlns="http://www.w3.org/2000/svg"
	xmlns:xlink="http://www.w3.org/1999/xlink"
	width="16px" height="16px" viewBox="0 0 16 16">
<path fillRule="evenodd" d="M 8 0C 3.58 0 0 3.58 0 8 0 12.41 3.58 16 8 16 12.42 16 16 12.41 16 8 16 3.58 12.42 0 8 0 8 0 8 0 8 0ZM 8 0.81C 10.84 0.81 13.3 2.47 14.46 4.86 14.46 4.87 14.46 4.87 14.46 4.88 14.47 4.96 14.48 5.05 14.47 5.14 14.54 5.19 14.61 5.27 14.68 5.36 14.84 5.77 14.96 6.2 15.04 6.65 14.97 6.71 14.88 6.76 14.74 6.77 14 6.18 14.72 7.41 15.13 7.19 15.16 7.45 15.19 7.73 15.19 8 15.19 9.78 14.53 11.39 13.46 12.65 13.46 12.6 13.47 12.54 13.49 12.46 13.99 11.85 13.89 10.65 12.88 10.79 12.35 11.2 11.62 11.73 10.98 11.12 10.31 10.52 10.62 9.52 10.99 8.84 11.36 8.3 11.49 7.49 12.15 7.21 12.81 7.36 13.61 7.32 13.85 6.52 14.06 6.16 13.94 6.04 13.75 5.95 13.73 5.95 13.72 5.95 13.71 5.94 13.49 5.85 13.21 5.78 13.18 5.46 13.38 5.12 12.96 4.44 12.81 5.05 13.14 5.43 13.22 6.58 12.41 6.16 12.7 6.62 11.37 6.32 11.63 6.97 11.84 7.67 10.43 8.07 10.83 7.17 11.06 6.51 10.73 5.52 11.31 5.1 11.31 5.08 11.36 4.99 11.34 5.08 11.36 5.07 11.38 5.05 11.4 5.04 11.91 4.69 10.75 3.63 10.82 4.28 11.32 4.54 11.04 5.07 10.56 4.81 10.05 4.55 9.86 3.16 10.57 3.25 11.11 3.32 10.6 2.76 10.35 2.48 10.33 2.61 10.29 2.46 10.31 2.44 10.3 2.43 10.28 2.41 10.26 2.39 10.33 1.55 8.93 2.29 8.7 1.54 7.81 1.1 6.8 1.08 5.82 1.15 6.2 1.03 6.58 0.96 6.98 0.9 7.02 0.89 7.06 0.89 7.1 0.89 7.21 0.88 7.32 0.86 7.42 0.84 7.61 0.83 7.81 0.81 8 0.81 8 0.81 8 0.81 8 0.81ZM 5 1.77C 6 2.11 4.49 3.17 5.24 3.59 5.32 3.58 5.38 3.61 5.44 3.63 5.46 3.61 5.47 3.62 5.47 3.64 5.81 3.8 5.89 4.29 5.33 4.25 4.56 4.04 4.25 5.68 5.01 5.47 5.29 4.7 6.12 5.03 6.27 5.71 6.72 6.4 5.8 6.39 5.49 6.69 5.81 7.27 4.93 6.96 4.6 7.25 3.97 7.38 3.78 8.33 3.24 8.36 3.21 7.37 1.56 7.7 1.83 8.61 2.18 8.89 2.65 9.17 2.58 9.76 2.56 10.99 4.07 10.58 4.75 11.24 5.57 11.6 6.11 12.35 6.84 12.84 7.47 12.62 8.77 13.22 8.14 13.98 7.76 14.26 7 14.5 7 14.66 7 14.66 7 14.68 7 14.68 6 14.77 6.31 14.85 6.02 14.87 5.46 14.7 4.87 14.45 4.38 14.16 4.37 14.15 4.35 14.15 4.34 14.14 4.12 13.49 3.5 13.09 3.09 12.56 2.88 12.34 2.84 12.1 2.86 11.85 2.86 11.85 2.84 11.84 2.85 11.83 2.88 11.42 3.02 10.98 2.72 10.6 2.24 9.81 1.65 9.08 1.34 8.2 1.3 7.29 1.25 6.42 1.55 5.56 2.22 4.18 3.9 2.71 5 1.77 5 1.77 5 1.77 5 1.77ZM 7.13 2.89C 7.16 2.89 7.18 2.89 7.21 2.9 7.39 2.9 7.33 3.1 7.21 3.15 6.8 3.54 6.7 2.97 7.04 2.9 7.07 2.9 7.1 2.89 7.13 2.89 7.13 2.89 7.13 2.89 7.13 2.89ZM 7.7 3.02C 7.99 2.98 8.29 3.1 8.38 3.46 8.59 4.29 7.75 4.82 7.45 5.5 6.68 5.29 7.49 4.45 7.16 4.04 6.7 3.56 7.2 3.08 7.7 3.02 7.7 3.02 7.7 3.02 7.7 3.02ZM 6.2 3.85C 6.68 3.82 6.59 4.89 6.18 5.05 5.83 4.73 6.3 4.25 6.1 3.88 6.14 3.86 6.17 3.85 6.2 3.85 6.2 3.85 6.2 3.85 6.2 3.85ZM 10.37 5.56C 10.53 5.55 10.88 5.71 10.85 5.94 10.69 6.19 10.26 6.17 10.43 5.79 10.25 5.63 10.27 5.57 10.37 5.56 10.37 5.56 10.37 5.56 10.37 5.56ZM 6.18 6.66C 6.38 6.63 6.78 6.77 6.4 7 6.53 6.87 6.32 6.92 6.29 6.93 6.04 6.76 6.07 6.68 6.18 6.66 6.18 6.66 6.18 6.66 6.18 6.66ZM 4.66 7.26C 4.71 7.27 4.64 7.34 4.57 7.32 4.57 7.32 4.56 7.32 4.56 7.32 4.55 7.31 4.54 7.3 4.53 7.29 4.6 7.26 4.64 7.26 4.66 7.26 4.66 7.26 4.66 7.26 4.66 7.26ZM 3.18 9.28C 3.21 9.27 3.25 9.27 3.3 9.28 3.33 9.28 3.39 9.29 3.43 9.31 3.43 9.31 3.43 9.31 3.43 9.32 3.58 9.38 3.73 9.5 3.66 9.7 3.54 9.75 3.41 9.66 3.34 9.57 3.08 9.41 3.08 9.31 3.18 9.28 3.18 9.28 3.18 9.28 3.18 9.28Z" fill="rgb(185,185,185)"/></svg>