<?xml version="1.0" encoding="utf-8"?>
<svg xmlns="http://www.w3.org/2000/svg"
	xmlns:xlink="http://www.w3.org/1999/xlink"
	width="16px" height="12px" viewBox="0 0 16 12">
<path fillRule="evenodd" d="M 12 6.02C 12 6.02 16 1.98 16 1.98 16 1.98 16 10.03 16 10.03 16 10.03 12 6.02 12 6.02ZM 0 0C 0 0 15.96 0 15.96 0 15.96 0 8 8.09 8 8.09 8 8.09 0 0 0 0ZM 0 10.09C 0 10.09 0 1.94 0 1.94 0 1.94 4 6.02 4 6.02 4 6.02 0 10.09 0 10.09ZM 8 10.34C 8 10.34 10.99 6.98 10.99 6.98 10.99 6.98 15.56 12 15.56 12 15.56 12 0.41 12 0.41 12 0.41 12 4.98 7.02 4.98 7.02 4.98 7.02 8 10.34 8 10.34Z" fill="rgb(185,185,185)"/></svg>