<?xml version="1.0" encoding="utf-8"?>
<svg xmlns="http://www.w3.org/2000/svg"
	xmlns:xlink="http://www.w3.org/1999/xlink"
	width="16px" height="16px" viewBox="0 0 16 16">
<path fillRule="evenodd" d="M 7.91 9.97C 6.72 9.97 5.76 9.01 5.76 7.83 5.76 6.64 6.72 5.68 7.91 5.68 9.09 5.68 10.05 6.64 10.05 7.83 10.05 9.01 9.09 9.97 7.91 9.97ZM 16 9C 16 9 16 7 16 7 16 7 14.39 7 14.39 7 14.26 6.03 13.91 5.13 13.4 4.35 13.4 4.35 14.42 3.24 14.42 3.24 14.42 3.24 12.79 1.61 12.79 1.61 12.79 1.61 11.61 2.57 11.61 2.57 10.85 2.01 9.97 1.59 9 1.4 9 1.4 9 0 9 0 9 0 7 0 7 0 7 0 7 1.35 7 1.35 6.02 1.5 5.11 1.86 4.33 2.39 4.33 2.39 3.24 1.39 3.24 1.39 3.24 1.39 1.61 3.02 1.61 3.02 1.61 3.02 2.59 4.39 2.59 4.39 2.04 5.16 1.65 6.04 1.46 7 1.46 7 0 7 0 7 0 7 0 9 0 9 0 9 1.44 9 1.44 9 1.6 9.95 1.95 10.83 2.47 11.6 2.47 11.6 1.39 12.57 1.39 12.57 1.39 12.57 3.02 14.2 3.02 14.2 3.02 14.2 4.47 13.15 4.47 13.15 5.22 13.68 6.07 14.07 7 14.26 7 14.26 7 16 7 16 7 16 9 16 9 16 9 16 9 14.49 9 14.49 9.94 14.35 10.81 13.82 11.58 13.32 11.58 13.32 12.57 14.41 12.57 14.41 12.57 14.41 14.2 12.79 14.2 12.79 14.2 12.79 13.16 11.54 13.16 11.54 13.71 10.79 14.12 9.94 14.32 9 14.32 9 16 9 16 9Z" fill="rgb(155,155,155)"/></svg>